<mxfile host="app.diagrams.net" modified="2022-03-30T04:23:22.256Z" agent="5.0 (Windows NT 10.0; Win64; x64) AppleWebKit/537.36 (KHTML, like Gecko) Chrome/99.0.4844.82 Safari/537.36" etag="C8ioPYfgMqDQ3b9ZqX8T" version="17.2.4" type="github">
  <diagram id="C5RBs43oDa-KdzZeNtuy" name="Page-1">
    <mxGraphModel dx="1038" dy="547" grid="1" gridSize="10" guides="1" tooltips="1" connect="1" arrows="1" fold="1" page="1" pageScale="1" pageWidth="827" pageHeight="1169" math="0" shadow="0">
      <root>
        <mxCell id="WIyWlLk6GJQsqaUBKTNV-0" />
        <mxCell id="WIyWlLk6GJQsqaUBKTNV-1" parent="WIyWlLk6GJQsqaUBKTNV-0" />
        <mxCell id="gypdQs_53JEYXS1wAj3A-15" value="" style="rounded=0;whiteSpace=wrap;html=1;dashed=1;" vertex="1" parent="WIyWlLk6GJQsqaUBKTNV-1">
          <mxGeometry x="101" y="310" width="530" height="180" as="geometry" />
        </mxCell>
        <mxCell id="gypdQs_53JEYXS1wAj3A-1" value="wA = b&lt;br&gt;w: 因子集的权重分布&lt;br&gt;b: 归一化的向量" style="rounded=0;whiteSpace=wrap;html=1;" vertex="1" parent="WIyWlLk6GJQsqaUBKTNV-1">
          <mxGeometry x="590" y="120" width="120" height="60" as="geometry" />
        </mxCell>
        <mxCell id="gypdQs_53JEYXS1wAj3A-2" value="s = bc.T&lt;br&gt;c: 每个等级的风险评定" style="rounded=0;whiteSpace=wrap;html=1;" vertex="1" parent="WIyWlLk6GJQsqaUBKTNV-1">
          <mxGeometry x="590" y="200" width="120" height="60" as="geometry" />
        </mxCell>
        <mxCell id="gypdQs_53JEYXS1wAj3A-10" style="edgeStyle=orthogonalEdgeStyle;rounded=0;orthogonalLoop=1;jettySize=auto;html=1;exitX=1;exitY=0.25;exitDx=0;exitDy=0;entryX=0.5;entryY=0;entryDx=0;entryDy=0;" edge="1" parent="WIyWlLk6GJQsqaUBKTNV-1" source="gypdQs_53JEYXS1wAj3A-4" target="gypdQs_53JEYXS1wAj3A-9">
          <mxGeometry relative="1" as="geometry" />
        </mxCell>
        <mxCell id="gypdQs_53JEYXS1wAj3A-4" value="每个案件的风险矩阵&lt;br&gt;A1, A2, …, Au" style="shape=parallelogram;perimeter=parallelogramPerimeter;whiteSpace=wrap;html=1;fixedSize=1;" vertex="1" parent="WIyWlLk6GJQsqaUBKTNV-1">
          <mxGeometry x="131" y="330" width="140" height="60" as="geometry" />
        </mxCell>
        <mxCell id="gypdQs_53JEYXS1wAj3A-11" style="edgeStyle=orthogonalEdgeStyle;rounded=0;orthogonalLoop=1;jettySize=auto;html=1;exitX=1;exitY=0.5;exitDx=0;exitDy=0;entryX=0.5;entryY=1;entryDx=0;entryDy=0;" edge="1" parent="WIyWlLk6GJQsqaUBKTNV-1" source="gypdQs_53JEYXS1wAj3A-5" target="gypdQs_53JEYXS1wAj3A-9">
          <mxGeometry relative="1" as="geometry" />
        </mxCell>
        <mxCell id="gypdQs_53JEYXS1wAj3A-5" value="得分向量C" style="shape=parallelogram;perimeter=parallelogramPerimeter;whiteSpace=wrap;html=1;fixedSize=1;" vertex="1" parent="WIyWlLk6GJQsqaUBKTNV-1">
          <mxGeometry x="121" y="420" width="130" height="40" as="geometry" />
        </mxCell>
        <mxCell id="gypdQs_53JEYXS1wAj3A-6" value="&lt;span style=&quot;color: rgb(0 , 0 , 0) ; font-family: &amp;#34;helvetica&amp;#34; ; font-size: 12px ; font-style: normal ; font-weight: 400 ; letter-spacing: normal ; text-align: center ; text-indent: 0px ; text-transform: none ; word-spacing: 0px ; background-color: rgb(248 , 249 , 250) ; display: inline ; float: none&quot;&gt;风险矩阵A(m,n)：&lt;/span&gt;&lt;span style=&quot;color: rgb(0 , 0 , 0) ; font-family: &amp;#34;helvetica&amp;#34; ; font-size: 12px ; font-style: normal ; font-weight: 400 ; letter-spacing: normal ; text-align: center ; text-indent: 0px ; text-transform: none ; word-spacing: 0px ; background-color: rgb(248 , 249 , 250) ; display: inline ; float: none&quot;&gt;表示线索库里面所有相关线索的敏感度分布矩阵&lt;br&gt;得分向量C(n,1)：每个风险等级的得分&lt;br&gt;X(m,1)：x单个案件风险分类得分向量&lt;br&gt;R(m,u)：风险分类得分矩阵，将所有案件的X拼起来(X1, X2, …, Xu)，归一化后获得，为训练集&lt;br&gt;&lt;/span&gt;" style="text;whiteSpace=wrap;html=1;fillColor=#dae8fc;strokeColor=#6c8ebf;" vertex="1" parent="WIyWlLk6GJQsqaUBKTNV-1">
          <mxGeometry x="100" y="140" width="280" height="110" as="geometry" />
        </mxCell>
        <mxCell id="gypdQs_53JEYXS1wAj3A-8" value="&lt;span style=&quot;color: rgb(0 , 0 , 0) ; font-size: 12px ; font-style: normal ; font-weight: 400 ; letter-spacing: normal ; text-indent: 0px ; text-transform: none ; word-spacing: 0px ; font-family: &amp;#34;helvetica&amp;#34; ; text-align: center ; background-color: rgb(248 , 249 , 250) ; display: inline ; float: none&quot;&gt;m：风险类别&lt;/span&gt;&lt;br style=&quot;color: rgb(0 , 0 , 0) ; font-size: 12px ; font-style: normal ; font-weight: 400 ; letter-spacing: normal ; text-indent: 0px ; text-transform: none ; word-spacing: 0px ; font-family: &amp;#34;helvetica&amp;#34; ; text-align: center ; background-color: rgb(248 , 249 , 250)&quot;&gt;&lt;span style=&quot;color: rgb(0 , 0 , 0) ; font-size: 12px ; font-style: normal ; font-weight: 400 ; letter-spacing: normal ; text-indent: 0px ; text-transform: none ; word-spacing: 0px ; font-family: &amp;#34;helvetica&amp;#34; ; text-align: center ; background-color: rgb(248 , 249 , 250) ; display: inline ; float: none&quot;&gt;n：每类风险里面的分级&lt;br&gt;u：案件个数&lt;br&gt;&lt;/span&gt;" style="text;whiteSpace=wrap;html=1;fillColor=#dae8fc;strokeColor=#6c8ebf;" vertex="1" parent="WIyWlLk6GJQsqaUBKTNV-1">
          <mxGeometry x="101" y="80" width="280" height="60" as="geometry" />
        </mxCell>
        <mxCell id="gypdQs_53JEYXS1wAj3A-18" value="" style="edgeStyle=orthogonalEdgeStyle;rounded=0;orthogonalLoop=1;jettySize=auto;html=1;" edge="1" parent="WIyWlLk6GJQsqaUBKTNV-1" source="gypdQs_53JEYXS1wAj3A-9" target="gypdQs_53JEYXS1wAj3A-17">
          <mxGeometry relative="1" as="geometry" />
        </mxCell>
        <mxCell id="gypdQs_53JEYXS1wAj3A-9" value="计算风险分类得分矩阵" style="rounded=0;whiteSpace=wrap;html=1;" vertex="1" parent="WIyWlLk6GJQsqaUBKTNV-1">
          <mxGeometry x="311" y="380" width="80" height="40" as="geometry" />
        </mxCell>
        <mxCell id="gypdQs_53JEYXS1wAj3A-12" value="案件：待评估风险等级的一类事件&lt;br&gt;&lt;div style=&quot;text-align: left&quot;&gt;&lt;span&gt;线索：留置中所有的相关内容&lt;/span&gt;&lt;/div&gt;" style="rounded=0;whiteSpace=wrap;html=1;fillColor=#dae8fc;strokeColor=#6c8ebf;" vertex="1" parent="WIyWlLk6GJQsqaUBKTNV-1">
          <mxGeometry x="100" y="20" width="280" height="60" as="geometry" />
        </mxCell>
        <mxCell id="gypdQs_53JEYXS1wAj3A-13" value="R" style="shape=parallelogram;perimeter=parallelogramPerimeter;whiteSpace=wrap;html=1;fixedSize=1;" vertex="1" parent="WIyWlLk6GJQsqaUBKTNV-1">
          <mxGeometry x="521" y="380" width="90" height="40" as="geometry" />
        </mxCell>
        <mxCell id="gypdQs_53JEYXS1wAj3A-16" value="训练集获取" style="text;html=1;strokeColor=none;fillColor=none;align=center;verticalAlign=middle;whiteSpace=wrap;rounded=0;dashed=1;" vertex="1" parent="WIyWlLk6GJQsqaUBKTNV-1">
          <mxGeometry x="561" y="460" width="70" height="30" as="geometry" />
        </mxCell>
        <mxCell id="gypdQs_53JEYXS1wAj3A-19" value="" style="edgeStyle=orthogonalEdgeStyle;rounded=0;orthogonalLoop=1;jettySize=auto;html=1;" edge="1" parent="WIyWlLk6GJQsqaUBKTNV-1" source="gypdQs_53JEYXS1wAj3A-17" target="gypdQs_53JEYXS1wAj3A-13">
          <mxGeometry relative="1" as="geometry" />
        </mxCell>
        <mxCell id="gypdQs_53JEYXS1wAj3A-17" value="归一化" style="rounded=0;whiteSpace=wrap;html=1;" vertex="1" parent="WIyWlLk6GJQsqaUBKTNV-1">
          <mxGeometry x="422" y="380" width="80" height="40" as="geometry" />
        </mxCell>
      </root>
    </mxGraphModel>
  </diagram>
</mxfile>
